<svg viewBox="0 0 800 600" xmlns="http://www.w3.org/2000/svg">
  <!-- Fondo abstracto -->
  <rect width="800" height="600" fill="#f8f9fa"/>
  <path d="M0,450 Q200,550 400,450 T800,450 V600 H0 Z" fill="#4361ee" opacity="0.2"/>
  <path d="M0,500 Q200,600 400,500 T800,500 V600 H0 Z" fill="#4361ee" opacity="0.4"/>
  
  <!-- Ilustración de evento -->
  <rect x="100" y="100" width="600" height="350" rx="20" fill="#ffffff" stroke="#4361ee" stroke-width="3"/>
  
  <!-- Icono de calendario -->
  <rect x="150" y="150" width="80" height="80" rx="10" fill="#4361ee"/>
  <rect x="165" y="180" width="50" height="40" rx="5" fill="#ffffff"/>
  <circle cx="175" cy="165" r="5" fill="#ffffff"/>
  <circle cx="190" cy="165" r="5" fill="#ffffff"/>
  <circle cx="205" cy="165" r="5" fill="#ffffff"/>
  <text x="177" y="205" font-family="Arial" font-size="24" font-weight="bold" fill="#4361ee">15</text>

  <!-- Ticket -->
  <rect x="280" y="150" width="160" height="80" rx="10" fill="#2ec4b6"/>
  <rect x="300" y="150" width="20" height="80" fill="#ffffff" opacity="0.3"/>
  <rect x="330" y="150" width="20" height="80" fill="#ffffff" opacity="0.3"/>
  <rect x="360" y="150" width="20" height="80" fill="#ffffff" opacity="0.3"/>
  <rect x="390" y="150" width="20" height="80" fill="#ffffff" opacity="0.3"/>
  <rect x="410" y="150" width="10" height="80" fill="#ffffff" opacity="0.2"/>
  <circle cx="280" cy="190" r="10" fill="#f8f9fa"/>
  <circle cx="440" cy="190" r="10" fill="#f8f9fa"/>
  
  <!-- Personas -->
  <circle cx="500" cy="180" r="30" fill="#ff9f1c"/>
  <circle cx="550" cy="180" r="30" fill="#4361ee"/>
  <circle cx="600" cy="180" r="30" fill="#2ec4b6"/>
  
  <!-- Elementos gráficos - Estadísticas -->
  <rect x="150" y="270" width="500" height="120" rx="10" fill="#f8f9fa" stroke="#4361ee" stroke-width="2"/>
  
  <!-- Barras de gráfico -->
  <rect x="180" y="330" width="40" height="40" rx="5" fill="#4361ee"/>
  <rect x="240" y="310" width="40" height="60" rx="5" fill="#4361ee"/>
  <rect x="300" y="290" width="40" height="80" rx="5" fill="#4361ee"/>
  <rect x="360" y="270" width="40" height="100" rx="5" fill="#4361ee"/>
  <rect x="420" y="320" width="40" height="50" rx="5" fill="#4361ee"/>
  <rect x="480" y="300" width="40" height="70" rx="5" fill="#4361ee"/>
  <rect x="540" y="340" width="40" height="30" rx="5" fill="#4361ee"/>
  
  <!-- Línea inferior -->
  <line x1="160" y1="370" x2="640" y2="370" stroke="#4361ee" stroke-width="2"/>
  
  <!-- Texto "EventosYA" -->
  <text x="400" y="450" font-family="Arial" font-size="48" font-weight="bold" text-anchor="middle" fill="#4361ee">EventosYA</text>
  <text x="400" y="480" font-family="Arial" font-size="24" text-anchor="middle" fill="#212529">Gestión de Eventos y Entradas</text>
</svg>